<svg width="16" height="17" viewBox="0 0 16 17" fill="none" xmlns="http://www.w3.org/2000/svg">
<path fill-rule="evenodd" clip-rule="evenodd" d="M4.66667 1.7749C2.82572 1.7749 1.33333 3.26728 1.33333 5.10823V11.7749C1.33333 13.6159 2.82572 15.1082 4.66666 15.1082H11.3333C13.1743 15.1082 14.6667 13.6159 14.6667 11.7749V5.10824C14.6667 3.26729 13.1743 1.7749 11.3333 1.7749H4.66667ZM12 5.10824C12.3682 5.10824 12.6667 4.80976 12.6667 4.44157C12.6667 4.07338 12.3682 3.7749 12 3.7749C11.6318 3.7749 11.3333 4.07338 11.3333 4.44157C11.3333 4.80976 11.6318 5.10824 12 5.10824ZM11.3333 8.44157C11.3333 10.2825 9.84095 11.7749 8 11.7749C6.15905 11.7749 4.66666 10.2825 4.66666 8.44157C4.66666 6.60062 6.15905 5.10824 8 5.10824C9.84095 5.10824 11.3333 6.60062 11.3333 8.44157ZM8 10.4416C9.10457 10.4416 10 9.54614 10 8.44157C10 7.337 9.10457 6.44157 8 6.44157C6.89543 6.44157 6 7.337 6 8.44157C6 9.54614 6.89543 10.4416 8 10.4416Z" fill="white"/>
</svg>
