<svg width="16" height="17" viewBox="0 0 16 17" fill="none" xmlns="http://www.w3.org/2000/svg">
<path d="M10.1906 3.10791C8.78808 3.10791 7.65107 4.30182 7.65107 5.77458C7.65107 5.99712 7.67704 6.2133 7.72595 6.41996C6.37734 6.41996 4.34603 6.1473 2.64956 4.44765C2.42397 4.22164 2.00799 4.37275 2.02364 4.69169C2.27505 9.81635 4.46978 11.3112 5.6 11.4042C4.87017 12.125 3.81 12.694 2.74319 12.9494C2.46164 13.0168 2.39209 13.325 2.6674 13.4145C3.43075 13.6628 4.52338 13.7584 5.1115 13.7746C9.27206 13.7746 12.6537 10.2727 12.7289 5.92277C13.2752 5.56754 13.6251 4.79624 13.8217 4.24985C13.8696 4.11678 13.6515 3.96173 13.5209 4.01608C13.1129 4.18596 12.5948 4.22623 12.1535 4.08245C11.6878 3.48742 10.9814 3.10791 10.1906 3.10791Z" fill="white"/>
</svg>
