<svg width="16" height="17" viewBox="0 0 16 17" fill="none" xmlns="http://www.w3.org/2000/svg">
<path fill-rule="evenodd" clip-rule="evenodd" d="M14.6667 8.44157C14.6667 12.1235 11.6819 15.1082 8 15.1082C6.9816 15.1082 6.01653 14.8799 5.15321 14.4716L2.24966 14.9555C1.79967 15.0305 1.40898 14.6415 1.48199 14.1912L1.95708 11.2609C1.55688 10.4046 1.33333 9.4492 1.33333 8.44157C1.33333 4.75967 4.3181 1.7749 8 1.7749C11.6819 1.7749 14.6667 4.75967 14.6667 8.44157ZM10.6666 10.2248V10.5156C10.6666 10.8429 10.4013 11.1082 10.0741 11.1082C7.45582 11.1082 5.33332 8.98573 5.33332 6.3675C5.33332 6.04022 5.59863 5.7749 5.92591 5.7749H6.21671C6.57793 5.7749 6.90277 5.99482 7.03692 6.33021L7.16133 6.64123C7.30041 6.98894 7.14975 7.3852 6.8148 7.55268C6.8148 7.55268 6.96295 8.29342 7.55554 8.88601C8.14813 9.47861 8.88887 9.62675 8.88887 9.62675C9.05635 9.2918 9.45262 9.14114 9.80032 9.28022L10.1113 9.40463C10.4467 9.53878 10.6666 9.86362 10.6666 10.2248Z" fill="white"/>
</svg>
