<svg width="16" height="16" viewBox="0 0 16 16" fill="none" xmlns="http://www.w3.org/2000/svg">
<g clip-path="url(#clip0_307_9667)">
<path d="M3.99992 2.66659H11.9999C13.4727 2.66659 14.6666 3.86049 14.6666 5.33325V8.66659C14.6666 10.1393 13.4727 11.3333 11.9999 11.3333H6.66659C5.19383 11.3333 3.99992 10.1393 3.99992 8.66659V2.66659ZM3.99992 2.66659C3.99992 1.93021 3.40296 1.33325 2.66659 1.33325H1.33325" stroke="#8E7E7E" stroke-width="1.5" stroke-linecap="round" stroke-linejoin="round"/>
<path d="M7.33325 13.6667C7.33325 14.219 6.88554 14.6667 6.33325 14.6667C5.78097 14.6667 5.33325 14.219 5.33325 13.6667C5.33325 13.1145 5.78097 12.6667 6.33325 12.6667C6.88554 12.6667 7.33325 13.1145 7.33325 13.6667Z" stroke="#8E7E7E" stroke-width="1.5"/>
<path d="M13.3333 13.6667C13.3333 14.219 12.8855 14.6667 12.3333 14.6667C11.781 14.6667 11.3333 14.219 11.3333 13.6667C11.3333 13.1145 11.781 12.6667 12.3333 12.6667C12.8855 12.6667 13.3333 13.1145 13.3333 13.6667Z" stroke="#8E7E7E" stroke-width="1.5"/>
<path d="M7.33325 8C8.90402 8.89357 9.76497 8.8842 11.3333 8" stroke="#8E7E7E" stroke-width="1.5" stroke-linecap="round" stroke-linejoin="round"/>
</g>
<defs>
<clipPath id="clip0_307_9667">
<rect width="16" height="16" fill="white"/>
</clipPath>
</defs>
</svg>
