<svg width="16" height="16" viewBox="0 0 16 16" fill="none" xmlns="http://www.w3.org/2000/svg">
<path d="M9.33325 12.6667V4.66667M9.33325 12.6667H10.6666M9.33325 12.6667H5.99992M9.33325 4.66667C9.33325 3.19391 8.13934 2 6.66659 2H3.99992C2.52716 2 1.33325 3.19391 1.33325 4.66667V10C1.33325 11.2435 2.18436 12.2882 3.33582 12.5833M9.33325 4.66667H11.4727C11.8114 4.66667 12.1374 4.7956 12.3846 5.02728L14.2452 6.77159C14.514 7.02366 14.6666 7.37576 14.6666 7.74431V11.3333C14.6666 12.0697 14.0696 12.6667 13.3333 12.6667M13.3333 12.6667C13.3333 13.403 12.7363 14 11.9999 14C11.2635 14 10.6666 13.403 10.6666 12.6667M13.3333 12.6667C13.3333 11.9303 12.7363 11.3333 11.9999 11.3333C11.2635 11.3333 10.6666 11.9303 10.6666 12.6667M5.99992 12.6667C5.99992 13.403 5.40297 14 4.66659 14C3.93021 14 3.33325 13.403 3.33325 12.6667C3.33325 12.6387 3.33411 12.6109 3.33582 12.5833M5.99992 12.6667C5.99992 11.9303 5.40297 11.3333 4.66659 11.3333C3.9582 11.3333 3.37884 11.8858 3.33582 12.5833" stroke="#8E7E7E" stroke-width="1.5"/>
<path d="M6.66658 5.33325L5.33325 5.33325" stroke="#8E7E7E" stroke-width="1.5" stroke-linecap="round" stroke-linejoin="round"/>
<path d="M6.66667 8L4 8" stroke="#8E7E7E" stroke-width="1.5" stroke-linecap="round" stroke-linejoin="round"/>
</svg>
