<svg width="25" height="24" viewBox="0 0 25 24" fill="none" xmlns="http://www.w3.org/2000/svg">
<path d="M4.10644 5.87673C3.83125 6.18631 3.85913 6.66037 4.16872 6.93556C4.47831 7.21075 4.95236 7.18286 5.22755 6.87327L4.10644 5.87673ZM6.17217 4.68167L5.61162 4.1834L5.61162 4.1834L6.17217 4.68167ZM9.16181 4.68167L9.72237 4.1834V4.1834L9.16181 4.68167ZM9.16181 19.3183L9.72237 19.8166L9.16181 19.3183ZM11.2275 18.1233C11.5027 17.8137 11.4749 17.3396 11.1653 17.0644C10.8557 16.7893 10.3816 16.8171 10.1064 17.1267L11.2275 18.1233ZM6.17217 19.3183L5.61162 19.8166L6.17217 19.3183ZM5.22755 17.1267C4.95236 16.8171 4.47831 16.7893 4.16872 17.0644C3.85913 17.3396 3.83125 17.8137 4.10644 18.1233L5.22755 17.1267ZM5.22755 6.87327L6.73273 5.17994L5.61162 4.1834L4.10644 5.87673L5.22755 6.87327ZM8.60125 5.17994L10.1064 6.87327L11.2275 5.87673L9.72237 4.1834L8.60125 5.17994ZM9.72237 19.8166L11.2275 18.1233L10.1064 17.1267L8.60125 18.8201L9.72237 19.8166ZM6.73273 18.8201L5.22755 17.1267L4.10644 18.1233L5.61162 19.8166L6.73273 18.8201ZM8.60125 18.8201C8.10402 19.3794 7.22997 19.3794 6.73273 18.8201L5.61162 19.8166C6.70554 21.0473 8.62844 21.0473 9.72237 19.8166L8.60125 18.8201ZM6.73273 5.17994C7.22997 4.62055 8.10402 4.62055 8.60125 5.17994L9.72237 4.1834C8.62844 2.95273 6.70554 2.95273 5.61162 4.1834L6.73273 5.17994ZM17.667 9.25C16.4244 9.25 15.417 8.24264 15.417 7H13.917C13.917 9.07107 15.5959 10.75 17.667 10.75V9.25ZM19.917 7C19.917 8.24264 18.9096 9.25 17.667 9.25V10.75C19.7381 10.75 21.417 9.07107 21.417 7H19.917ZM17.667 4.75C18.9096 4.75 19.917 5.75736 19.917 7H21.417C21.417 4.92893 19.7381 3.25 17.667 3.25V4.75ZM17.667 3.25C15.5959 3.25 13.917 4.92893 13.917 7H15.417C15.417 5.75736 16.4244 4.75 17.667 4.75V3.25ZM17.667 19.25C16.4244 19.25 15.417 18.2426 15.417 17H13.917C13.917 19.0711 15.5959 20.75 17.667 20.75V19.25ZM19.917 17C19.917 18.2426 18.9096 19.25 17.667 19.25V20.75C19.7381 20.75 21.417 19.0711 21.417 17H19.917ZM17.667 14.75C18.9096 14.75 19.917 15.7574 19.917 17H21.417C21.417 14.9289 19.7381 13.25 17.667 13.25V14.75ZM17.667 13.25C15.5959 13.25 13.917 14.9289 13.917 17H15.417C15.417 15.7574 16.4244 14.75 17.667 14.75V13.25ZM6.91699 4V20H8.41699V4H6.91699Z" fill="#222222"/>
</svg>
