<svg width="159" height="36" viewBox="0 0 159 36" fill="none" xmlns="http://www.w3.org/2000/svg">
<path fill-rule="evenodd" clip-rule="evenodd" d="M14.2185 8.0593L6.08105 0H36.5599V30.1858L28.0855 21.7931L28.2076 21.9135V8.0593H14.2185Z" fill="#FF0000"/>
<path fill-rule="evenodd" clip-rule="evenodd" d="M7.2098 17.449L-0.00390625 10.3047H14.5556V21.7931H25.9411V35.9999L18.7273 28.8557H7.2098V17.449ZM16.8713 10.3047H25.941V19.4567H16.8713V10.3047Z" fill="#9A0019"/>
<path fill-rule="evenodd" clip-rule="evenodd" d="M25.9409 19.4566H16.8711V10.3047H25.9409V19.4566Z" fill="#FF0000"/>
<path d="M49.6543 24.815V10.938H53.9503L57.125 18.732H57.4861L60.6229 10.938H64.9949V24.815H61.9156V12.9721L62.3527 13.0101L58.684 22.0016H55.7182L52.0305 13.0101L52.5056 12.9721V24.815H49.6543Z" fill="#222222"/>
<path d="M72.6196 25.1757C71.7198 25.1757 70.9372 25.0268 70.2718 24.7291C69.6067 24.4311 69.052 24.0287 68.6086 23.5218C68.165 23.0149 67.8355 22.4415 67.6201 21.8016C67.4046 21.1615 67.2969 20.4994 67.2969 19.815V19.4538C67.2969 18.7442 67.4109 18.0631 67.6391 17.4102C67.8673 16.7576 68.203 16.178 68.6466 15.6711C69.09 15.1639 69.6447 14.7647 70.3098 14.4733C70.9752 14.1819 71.7388 14.0361 72.6006 14.0361C73.5384 14.0361 74.3685 14.2166 75.0909 14.5778C75.8133 14.939 76.3899 15.4429 76.8208 16.0892C77.2515 16.7354 77.4924 17.477 77.5432 18.3133H74.5585C74.508 17.8444 74.321 17.4482 73.9978 17.1253C73.6747 16.8021 73.209 16.6404 72.6006 16.6404C72.0937 16.6404 71.6723 16.7671 71.3364 17.0206C71.0007 17.274 70.7502 17.6227 70.5855 18.0661C70.4208 18.5098 70.3385 19.0357 70.3385 19.644C70.3385 20.2014 70.4145 20.7053 70.5665 21.1552C70.7187 21.6052 70.9627 21.9536 71.2984 22.2008C71.6343 22.4478 72.0747 22.5715 72.6196 22.5715C73.025 22.5715 73.3705 22.4985 73.6557 22.3528C73.9409 22.207 74.1688 22.0043 74.34 21.7444C74.511 21.4847 74.6155 21.1837 74.6537 20.8416H77.6191C77.5812 21.7034 77.3402 22.4605 76.8968 23.1131C76.4531 23.7658 75.864 24.2727 75.1289 24.6338C74.3938 24.9953 73.5574 25.1757 72.6196 25.1757Z" fill="#222222"/>
<path d="M82.465 24.8908V21.9823H85.0503C85.6966 21.9823 86.2795 21.8841 86.7992 21.6876C87.3188 21.4912 87.7623 21.2125 88.1299 20.8513C88.4974 20.4901 88.7763 20.0529 88.9663 19.5396C89.1565 19.0264 89.2515 18.4593 89.2515 17.8384C89.2515 17.192 89.1565 16.6154 88.9663 16.1085C88.7763 15.6016 88.4974 15.1706 88.1299 14.8157C87.7623 14.4608 87.3188 14.1916 86.7992 14.0079C86.2795 13.8242 85.6966 13.7322 85.0503 13.7322H82.465V10.8237H84.8793C86.1338 10.8237 87.2301 11.0074 88.1679 11.3751C89.1058 11.7426 89.8914 12.2432 90.525 12.8768C91.1589 13.5105 91.6308 14.2361 91.9412 15.0534C92.2519 15.8708 92.4071 16.7293 92.4071 17.6292V18.0473C92.4071 18.8837 92.2519 19.7108 91.9412 20.5281C91.6308 21.3454 91.1589 22.0806 90.525 22.7332C89.8914 23.3858 89.1058 23.9087 88.1679 24.3016C87.2301 24.6943 86.1338 24.8908 84.8793 24.8908L82.465 24.8908ZM79.7275 24.8908V10.8237H82.8452V24.8908H79.7275Z" fill="#222222"/>
<path d="M99.4768 25.1757C98.5642 25.1757 97.7534 25.0333 97.0435 24.7481C96.3339 24.4629 95.735 24.0732 95.2471 23.579C94.7592 23.0846 94.3885 22.5175 94.1351 21.8776C93.8816 21.2375 93.7549 20.5626 93.7549 19.853V19.4158C93.7549 18.6935 93.8849 18.0059 94.1446 17.3532C94.4045 16.7006 94.7847 16.1272 95.2851 15.6328C95.7857 15.1387 96.3909 14.749 97.1005 14.4638C97.8104 14.1786 98.6025 14.0361 99.4768 14.0361C100.377 14.0361 101.178 14.1786 101.882 14.4638C102.585 14.749 103.184 15.1387 103.678 15.6328C104.172 16.1272 104.552 16.7006 104.819 17.3532C105.085 18.0059 105.218 18.6935 105.218 19.4158V19.853C105.218 20.5626 105.091 21.2375 104.838 21.8776C104.584 22.5175 104.213 23.0846 103.725 23.579C103.238 24.0732 102.639 24.4629 101.929 24.7481C101.219 25.0333 100.402 25.1757 99.4768 25.1757ZM99.4768 22.6095C100.072 22.6095 100.567 22.4828 100.96 22.2293C101.352 21.9759 101.653 21.6209 101.863 21.1648C102.072 20.7086 102.176 20.2015 102.176 19.6441C102.176 19.0484 102.069 18.5255 101.853 18.0756C101.638 17.6257 101.33 17.2678 100.931 17.0016C100.532 16.7354 100.047 16.6024 99.4768 16.6024C98.9192 16.6024 98.4375 16.7354 98.0321 17.0016C97.6266 17.2678 97.3192 17.6257 97.11 18.0756C96.901 18.5255 96.7965 19.0484 96.7965 19.6441C96.7965 20.2015 96.8978 20.7086 97.1005 21.1648C97.3035 21.6209 97.6074 21.9759 98.0131 22.2293C98.4185 22.4828 98.9064 22.6095 99.4768 22.6095Z" fill="#222222"/>
<path d="M107.349 24.8146V14.3974H109.763V18.8646H109.592C109.592 17.8 109.728 16.9129 110 16.2033C110.273 15.4937 110.688 14.9613 111.246 14.6066C111.803 14.2517 112.481 14.0742 113.28 14.0742H113.413C114.629 14.0742 115.558 14.4701 116.198 15.2622C116.838 16.0543 117.158 17.2551 117.158 18.8645V24.8146H114.116V18.6936C114.116 18.1359 113.951 17.6798 113.622 17.3248C113.292 16.9699 112.849 16.7927 112.291 16.7927C111.721 16.7927 111.261 16.9731 110.913 17.3343C110.565 17.6955 110.39 18.1677 110.39 18.7506V24.8146L107.349 24.8146Z" fill="#222222"/>
<path d="M126.035 24.814V21.7344H125.522V18.3888C125.522 17.8566 125.395 17.4572 125.141 17.1912C124.888 16.9251 124.482 16.7921 123.925 16.7921C123.646 16.7921 123.279 16.7983 122.822 16.8111C122.366 16.8236 121.897 16.8426 121.416 16.8681C120.934 16.8933 120.497 16.9188 120.104 16.9441V14.3778C120.395 14.3523 120.738 14.3271 121.13 14.3018C121.523 14.2763 121.929 14.2573 122.347 14.2448C122.765 14.2321 123.158 14.2256 123.525 14.2256C124.59 14.2256 125.487 14.3778 126.215 14.682C126.944 14.9862 127.498 15.4456 127.879 16.0602C128.259 16.6748 128.449 17.4637 128.449 18.4268V24.814L126.035 24.814ZM122.708 25.0802C121.961 25.0802 121.305 24.947 120.741 24.681C120.177 24.4149 119.736 24.0314 119.42 23.5308C119.103 23.0304 118.944 22.4315 118.944 21.7344C118.944 20.974 119.141 20.3499 119.533 19.862C119.926 19.3741 120.478 19.0129 121.187 18.7784C121.897 18.544 122.714 18.4268 123.64 18.4268H125.864V20.1187H123.621C123.088 20.1187 122.68 20.2487 122.394 20.5084C122.109 20.7681 121.967 21.1198 121.967 21.5634C121.967 21.9816 122.109 22.3205 122.394 22.5805C122.68 22.8402 123.088 22.9701 123.621 22.9701C123.963 22.9701 124.27 22.9099 124.543 22.7894C124.815 22.6692 125.04 22.4632 125.217 22.1718C125.395 21.8801 125.496 21.4747 125.522 20.955L126.244 21.7154C126.18 22.4377 126.006 23.0461 125.721 23.5403C125.436 24.0347 125.043 24.4149 124.543 24.6811C124.042 24.947 123.43 25.0802 122.708 25.0802Z" fill="#222222"/>
<path d="M131.166 24.8146V10.9375H134.208L134.227 24.8146H131.166ZM129.931 13.1808V10.9375H134.208L134.227 13.1808H129.931Z" fill="#222222"/>
<path d="M141.319 25.1568C140.583 25.1568 139.915 25.0238 139.313 24.7576C138.711 24.4914 138.188 24.1207 137.745 23.6455C137.301 23.1701 136.962 22.6095 136.728 21.9631C136.493 21.3168 136.376 20.6199 136.376 19.872V19.4349C136.376 18.6872 136.487 17.9901 136.709 17.3438C136.93 16.6974 137.254 16.1303 137.678 15.6424C138.103 15.1545 138.613 14.7743 139.208 14.5018C139.804 14.2294 140.469 14.0931 141.205 14.0931C142.041 14.0931 142.763 14.2739 143.372 14.635C143.98 14.9962 144.455 15.5284 144.797 16.2317C145.139 16.9351 145.33 17.7999 145.368 18.8265L144.569 18.0851V10.9375H147.63V24.8146H145.216V20.4994H145.634C145.596 21.4879 145.39 22.3305 145.016 23.0277C144.642 23.7248 144.138 24.2537 143.505 24.6149C142.871 24.976 142.142 25.1568 141.319 25.1568ZM142.079 22.6095C142.548 22.6095 142.975 22.505 143.362 22.2958C143.749 22.0866 144.059 21.7794 144.293 21.3737C144.528 20.9683 144.645 20.4804 144.645 19.91V19.2067C144.645 18.649 144.525 18.1803 144.284 17.7999C144.043 17.4198 143.726 17.1283 143.333 16.9256C142.941 16.7229 142.516 16.6214 142.06 16.6214C141.553 16.6214 141.1 16.7514 140.701 17.0111C140.301 17.271 139.988 17.6257 139.76 18.0756C139.532 18.5255 139.418 19.0484 139.418 19.6441C139.418 20.2522 139.532 20.7781 139.76 21.2218C139.988 21.6654 140.305 22.0076 140.71 22.2483C141.116 22.489 141.572 22.6095 142.079 22.6095Z" fill="#222222"/>
<path d="M154.34 25.1379C152.857 25.1379 151.698 24.8337 150.861 24.2253C150.025 23.6172 149.581 22.7616 149.53 21.6591H152.23C152.28 21.9885 152.48 22.2832 152.829 22.5431C153.177 22.8028 153.7 22.9328 154.397 22.9328C154.929 22.9328 155.369 22.8408 155.718 22.6571C156.067 22.4734 156.241 22.2104 156.241 21.8683C156.241 21.5641 156.108 21.3201 155.842 21.1364C155.575 20.9527 155.1 20.8227 154.416 20.7467L153.598 20.6705C152.344 20.5438 151.403 20.1953 150.776 19.6252C150.148 19.0548 149.834 18.3262 149.834 17.4389C149.834 16.704 150.018 16.0894 150.386 15.595C150.753 15.1008 151.263 14.7269 151.916 14.4734C152.569 14.22 153.313 14.0933 154.15 14.0933C155.493 14.0933 156.577 14.388 157.4 14.9773C158.224 15.5665 158.655 16.4188 158.693 17.5341H155.994C155.943 17.1919 155.766 16.9035 155.461 16.669C155.157 16.4346 154.707 16.3173 154.112 16.3173C153.643 16.3173 153.269 16.4061 152.99 16.5835C152.711 16.761 152.572 17.0017 152.572 17.3059C152.572 17.5973 152.692 17.819 152.933 17.9713C153.174 18.1232 153.567 18.231 154.112 18.2944L154.929 18.3704C156.209 18.5099 157.204 18.8646 157.914 19.435C158.623 20.0054 158.978 20.772 158.978 21.735C158.978 22.4321 158.788 23.0373 158.408 23.5504C158.028 24.0638 157.489 24.4568 156.792 24.7292C156.095 25.0016 155.278 25.1379 154.34 25.1379Z" fill="#222222"/>
</svg>
